<?xml version="1.0" encoding="UTF-8" standalone="no"?>
<!-- Created with Inkscape (http://www.inkscape.org/) -->

<svg
   xmlns:dc="http://purl.org/dc/elements/1.1/"
   xmlns:cc="http://creativecommons.org/ns#"
   xmlns:rdf="http://www.w3.org/1999/02/22-rdf-syntax-ns#"
   xmlns:svg="http://www.w3.org/2000/svg"
   xmlns="http://www.w3.org/2000/svg"
   xmlns:sodipodi="http://sodipodi.sourceforge.net/DTD/sodipodi-0.dtd"
   xmlns:inkscape="http://www.inkscape.org/namespaces/inkscape"
   width="51.681652mm"
   height="19.755556mm"
   viewBox="0 0 183.12396 70.000002"
   id="svg2"
   version="1.1"
   inkscape:version="0.91 r13725"
   sodipodi:docname="logo_skewed.svg"
   preserveaspectratio="xMaxYMax meet">
  <defs
     id="defs4" />
  <sodipodi:namedview
     id="base"
     pagecolor="#ffffff"
     bordercolor="#666666"
     borderopacity="1.0"
     inkscape:pageopacity="0.0"
     inkscape:pageshadow="2"
     inkscape:zoom="0.49497475"
     inkscape:cx="-525.55831"
     inkscape:cy="-87.444161"
     inkscape:document-units="px"
     inkscape:current-layer="layer5"
     showgrid="false"
     inkscape:object-paths="true"
     inkscape:snap-intersection-paths="true"
     inkscape:object-nodes="true"
     inkscape:window-width="1366"
     inkscape:window-height="706"
     inkscape:window-x="-8"
     inkscape:window-y="-8"
     inkscape:window-maximized="1"
     fit-margin-top="0"
     fit-margin-left="0"
     fit-margin-right="0"
     fit-margin-bottom="0" />
  <metadata
     id="metadata7">
    <rdf:RDF>
      <cc:Work
         rdf:about="">
        <dc:format>image/svg+xml</dc:format>
        <dc:type
           rdf:resource="http://purl.org/dc/dcmitype/StillImage" />
        <dc:title />
      </cc:Work>
    </rdf:RDF>
  </metadata>
  <g
     inkscape:groupmode="layer"
     id="layer5"
     inkscape:label="Layer 5"
     transform="translate(-369.86672,-270.93359)">
    <path
       style="fill:#000000;fill-opacity:1;stroke:none;stroke-opacity:1"
       d="m 402.50826,270.93359 -32.64154,70 4.90234,0 1.63282,0 142.3125,0 1.63476,0 17.33262,-37.16992 -4.90234,0 -22.67383,0 -1.5237,3.26758 21.04102,0 -14.28523,30.63477 -41.44727,0 29.59415,-63.46485 47.98242,0 1.5237,-3.26758 -95.96484,0 -6.53516,0 -31.11785,66.73243 -41.44726,0 31.11785,-66.73243 -6.53516,0 z m 52.99388,3.26758 41.44726,0 -29.59415,63.46485 -41.44726,0 18.64229,-39.97852 26.39844,0 1.5237,-3.26758 -26.39844,0 9.42816,-20.21875 z"
       id="rect4223-3"
       inkscape:connector-curvature="0" />
  </g>
</svg>
